.
..............................Site Info...........................

 -   http://www.scenetime.com  *_*   


Scenetime .Always on time . friendly online private torrent community ..

     We care to share . Join us on  http://www.scenetime.com 

    Be the first to get new release at  http://www.scenetime.com

        Seed back for speed


...................................NFO:.................................................General
Complete name                    : T0G1W0G3.avi
Format                           : DivX
Format/Info                      : Hack of AVI
File size                        : 701 MiB
Duration                         : 1h 24mn
Overall bit rate                 : 1 165 Kbps

Video
ID                               : 0
Format                           : MPEG-4 Visual
Format settings, BVOP            : 1
Format settings, QPel            : No
Format settings, GMC             : No warppoints
Format settings, Matrix          : Default (H.263)
Muxing mode                      : Packed bitstream
Codec ID                         : DX50
Codec ID/Hint                    : DivX 5
Duration                         : 1h 24mn
Bit rate                         : 1 028 Kbps
Width                            : 640 pixels
Height                           : 368 pixels
Display aspect ratio             : 16:9
Frame rate                       : 25.000 fps
Color space                      : YUV
Chroma subsampling               : 4:2:0
Bit depth                        : 8 bits
Scan type                        : Progressive
Compression mode                 : Lossy
Bits/(Pixel*Frame)               : 0.175
Stream size                      : 618 MiB (88%)
Title                            : Main
Writing library                  : DivX 6.8.5 (UTC 2009-08-20)

Audio
ID                               : 1
Format                           : MPEG Audio
Format version                   : Version 1
Format profile                   : Layer 3
Mode                             : Joint stereo
Codec ID                         : 55
Codec ID/Hint                    : MP3
Duration                         : 1h 24mn
Bit rate mode                    : Constant
Bit rate                         : 128 Kbps
Channel(s)                       : 2 channels
Sampling rate                    : 48.0 KHz
Compression mode                 : Lossy
Stream size                      : 77.0 MiB (11%)
Alignment                        : Split accross interleaves
Interleave, duration             : 40 ms (1.00 video frame)
Interleave, preload duration     : 500 ms
Title                            : Audio - en
Writing library                  : LAME3.97